<?xml version="1.0" standalone="no"?>
<!DOCTYPE svg PUBLIC "-//W3C//DTD SVG 20010904//EN"
 "http://www.w3.org/TR/2001/REC-SVG-20010904/DTD/svg10.dtd">
<svg version="1.0" xmlns="http://www.w3.org/2000/svg"
 width="227.000000pt" height="85.000000pt" viewBox="0 0 227.000000 85.000000"
 preserveAspectRatio="xMidYMid meet">
<metadata>
Created by potrace 1.10, written by Peter Selinger 2001-2011
</metadata>
<g transform="translate(0.000000,85.000000) scale(0.100000,-0.100000)"
fill="#000000" stroke="none">
<path d="M327 840 c-162 -41 -302 -201 -314 -362 -11 -136 38 -268 132 -357
63 -59 147 -102 214 -108 54 -5 42 7 -35 33 -130 44 -228 146 -268 278 -19 63
-15 66 77 66 93 0 127 -7 127 -24 0 -23 46 -57 66 -49 17 6 17 8 -5 13 -28 6
-40 27 -16 27 8 0 15 -4 15 -8 0 -13 60 -21 74 -10 8 7 17 27 20 46 5 26 12
35 26 35 16 0 20 -7 20 -33 0 -18 6 -42 14 -53 14 -18 16 -18 48 -2 51 25 70
30 66 16 -3 -7 -15 -15 -29 -19 l-24 -7 24 -1 c14 -1 34 10 47 25 15 15 29 22
37 18 8 -5 7 -2 -2 9 -13 17 -8 18 80 15 94 -3 94 -3 97 -30 5 -42 -59 -167
-109 -214 -61 -56 -84 -70 -175 -105 l-79 -30 57 5 c106 8 233 98 291 205 123
226 40 486 -190 594 -55 25 -80 30 -157 33 -50 2 -108 -1 -129 -6z m203 -11
c102 -23 211 -104 264 -194 29 -49 56 -137 56 -182 l0 -33 -195 0 -195 0 0 40
c0 35 4 42 26 51 31 11 64 3 64 -16 0 -8 5 -17 11 -21 7 -4 9 0 5 14 -6 17 -3
19 16 15 13 -4 26 -11 30 -17 4 -6 10 -7 15 -3 4 5 1 12 -7 17 -13 8 -13 11 1
26 11 11 19 12 23 5 4 -6 2 -11 -5 -11 -10 0 -10 -3 -2 -11 9 -9 16 -8 28 5
12 12 13 16 3 17 -10 0 -10 2 0 6 6 2 12 9 12 14 0 6 -7 6 -19 0 -10 -6 -21
-7 -25 -3 -13 12 -75 9 -80 -5 -6 -15 -86 -19 -86 -4 0 17 22 24 32 10 8 -11
9 -10 4 4 -4 12 0 17 13 17 11 0 21 -3 24 -7 2 -5 2 -2 1 5 -2 8 5 11 19 9 12
-2 16 -2 9 0 -15 5 -12 33 6 51 7 8 9 18 6 24 -3 5 3 4 15 -4 25 -15 28 -33 4
-24 -15 6 -15 4 2 -14 10 -11 14 -20 10 -20 -5 0 -6 -2 -3 -5 3 -3 18 2 34 11
l29 16 -28 -6 c-25 -6 -27 -4 -19 11 12 23 5 43 -14 36 -8 -3 -14 1 -14 9 0 8
-8 23 -18 34 -11 11 -21 26 -23 33 -4 10 -7 10 -18 -2 -10 -13 -9 -17 8 -27
22 -11 30 -69 11 -71 -5 -1 -16 -2 -22 -3 -7 -1 -15 -10 -18 -20 -3 -11 -11
-21 -17 -23 -13 -5 -12 15 1 36 6 8 -1 7 -18 -4 -24 -16 -26 -16 -26 -1 0 10
4 15 9 11 5 -3 13 0 17 6 4 8 3 9 -4 5 -7 -4 -12 -2 -12 3 0 6 -4 11 -10 11
-5 0 -10 -7 -10 -15 0 -8 -7 -15 -15 -15 -8 0 -15 -5 -15 -11 0 -5 5 -7 10 -4
13 8 24 -20 16 -42 -6 -15 -8 -14 -21 4 -22 31 -29 71 -15 88 11 13 10 14 -4
9 -9 -3 -16 -1 -16 4 0 20 22 25 38 9 14 -15 17 -14 34 6 12 13 22 17 26 11 4
-6 14 -14 22 -17 10 -3 6 -6 -10 -7 -14 -1 -29 -2 -33 -1 -5 1 -6 -3 -2 -9 4
-6 16 -8 27 -4 16 5 19 3 13 -7 -5 -8 1 -5 13 5 26 22 16 40 -26 51 -26 6 -26
7 -8 21 11 7 16 17 12 21 -4 5 -14 -1 -22 -12 -15 -20 -16 -20 -35 4 -15 18
-23 21 -28 13 -4 -7 -14 -10 -22 -7 -18 6 -46 -11 -35 -22 5 -4 11 -2 13 4 3
9 10 10 23 3 11 -6 25 -9 32 -8 6 2 14 -6 16 -16 3 -15 0 -17 -14 -11 -11 4
-28 9 -39 11 -19 4 -19 4 -1 -4 14 -6 16 -11 7 -16 -7 -5 -20 -1 -31 9 -18 16
-19 16 -18 -14 1 -17 5 -31 10 -31 5 0 6 5 2 11 -4 7 1 10 12 7 11 -2 20 -13
22 -27 2 -15 0 -21 -7 -17 -17 11 -13 -10 4 -24 15 -13 21 -50 8 -50 -12 1
-43 26 -43 35 0 4 7 4 16 1 15 -6 15 -4 3 10 -8 10 -15 12 -17 5 -2 -6 -8 -9
-13 -6 -5 4 -6 -1 -3 -9 7 -19 3 -20 -29 -3 -19 10 -23 17 -16 29 6 11 5 18
-4 21 -17 7 -44 -9 -34 -20 5 -4 13 -1 18 7 8 11 9 8 5 -12 -5 -21 -2 -28 8
-28 8 0 18 -5 22 -11 4 -8 -1 -9 -16 -4 -14 4 -20 3 -16 -3 6 -11 -21 -26 -41
-23 -7 1 -13 -3 -13 -9 0 -14 33 -13 49 3 11 10 13 10 7 0 -4 -7 -3 -13 2 -13
6 0 13 7 16 15 10 26 48 0 41 -28 l-6 -22 17 23 c32 43 74 15 74 -49 l0 -39
-201 0 -202 0 7 58 c14 123 103 251 215 311 93 49 192 63 291 40z m-46 -244
c-6 -16 -24 -21 -24 -7 0 11 11 22 21 22 5 0 6 -7 3 -15z m-124 -35 c12 -8 11
-10 -7 -10 -12 0 -25 5 -28 10 -8 13 15 13 35 0z m257 -15 c-2 -5 -19 -11 -37
-13 -27 -3 -32 -1 -23 10 13 15 65 18 60 3z m-241 -156 c10 -16 -16 -29 -40
-20 -12 5 -29 7 -38 6 -9 -2 -19 3 -22 11 -4 11 6 14 44 14 27 0 52 -5 56 -11z
m238 -2 c-2 -7 -19 -14 -37 -15 -18 -1 -41 -3 -52 -4 -12 -2 -21 4 -23 15 -3
15 5 17 57 17 45 0 59 -3 55 -13z"/>
<path d="M290 726 c0 -8 -6 -17 -12 -19 -8 -3 -6 -6 5 -6 9 -1 17 1 17 3 0 2
3 11 6 20 3 9 1 16 -5 16 -6 0 -11 -6 -11 -14z"/>
<path d="M270 678 c0 -10 -7 -18 -15 -18 -8 0 -15 -4 -15 -10 0 -13 17 -13 25
0 5 8 11 7 21 -1 18 -15 18 2 -1 27 -13 17 -14 17 -15 2z"/>
<path d="M210 615 c7 -8 17 -15 22 -15 6 0 5 7 -2 15 -7 8 -17 15 -22 15 -6 0
-5 -7 2 -15z"/>
<path d="M310 615 c-16 -19 -10 -19 26 0 25 13 26 15 8 15 -12 0 -27 -7 -34
-15z"/>
<path d="M222 588 c-24 -12 -25 -29 -2 -36 9 -3 11 1 7 12 -3 8 -3 15 1 15 18
-3 32 2 32 11 0 12 -8 12 -38 -2z"/>
<path d="M250 489 c0 -6 7 -9 14 -6 10 4 13 1 9 -9 -6 -16 13 -19 23 -3 7 12
-12 29 -33 29 -7 0 -13 -5 -13 -11z"/>
<path d="M1175 513 c-6 -1 -9 -27 -7 -58 l4 -55 39 0 c21 0 39 5 39 10 0 6
-13 10 -29 10 -29 0 -30 2 -33 48 -2 27 -7 47 -13 45z"/>
<path d="M1703 507 c-24 -14 -33 -27 -33 -54 0 -34 27 -54 69 -51 31 3 36 7
39 31 3 23 0 27 -22 27 -29 0 -35 -16 -8 -23 16 -4 16 -4 0 -12 -30 -12 -50 2
-46 32 2 23 8 28 32 28 16 1 31 6 33 12 5 15 -41 22 -64 10z"/>
<path d="M2058 513 c-3 -4 -2 -30 1 -58 l6 -50 40 0 40 0 5 53 c4 37 2 52 -7
52 -7 0 -13 -17 -15 -42 -2 -35 -7 -43 -23 -43 -16 0 -21 8 -23 40 -3 40 -16
64 -24 48z"/>
<path d="M1070 500 c0 -6 -10 -31 -21 -55 -22 -46 -18 -75 5 -42 16 21 62 22
70 1 3 -8 10 -13 15 -10 16 10 -32 116 -51 116 -10 0 -18 -5 -18 -10z m26 -57
c-11 -11 -19 6 -11 24 8 17 8 17 12 0 3 -10 2 -21 -1 -24z"/>
<path d="M1270 456 c0 -30 5 -58 10 -61 6 -3 10 3 10 13 0 14 9 21 29 25 33 7
49 40 31 62 -7 8 -28 15 -46 15 l-34 0 0 -54z m58 17 c-5 -26 -38 -29 -38 -4
0 15 6 21 21 21 14 0 19 -5 17 -17z"/>
<path d="M1376 457 c0 -54 15 -75 24 -35 9 34 44 31 48 -5 6 -47 22 -19 22 39
0 40 -4 54 -14 54 -9 0 -12 -7 -9 -20 4 -16 0 -20 -21 -20 -19 0 -26 5 -26 20
0 11 -6 20 -12 20 -9 0 -13 -17 -12 -53z"/>
<path d="M1513 459 c-22 -50 -21 -87 1 -57 19 25 55 29 67 7 5 -11 14 -17 19
-14 13 8 -33 115 -50 115 -8 0 -25 -23 -37 -51z m47 -5 c0 -8 -4 -14 -10 -14
-5 0 -10 9 -10 21 0 11 5 17 10 14 6 -3 10 -13 10 -21z"/>
<path d="M1802 455 c3 -54 20 -77 26 -35 4 26 8 25 37 -7 13 -16 27 -25 31
-21 4 5 0 16 -9 26 -15 17 -15 19 1 35 26 26 5 51 -47 55 l-42 3 3 -56z m66
18 c-5 -26 -38 -29 -38 -4 0 15 6 21 21 21 14 0 19 -5 17 -17z"/>
<path d="M1930 495 c-17 -21 -16 -64 3 -82 18 -19 61 -20 82 -3 18 15 20 71 3
88 -17 17 -73 15 -88 -3z m74 -27 c8 -14 7 -21 -6 -34 -30 -30 -75 9 -48 42
16 18 39 15 54 -8z"/>
<path d="M2182 455 c2 -30 7 -54 13 -53 5 2 9 8 7 14 -1 6 11 14 27 17 33 7
49 40 31 62 -7 8 -28 15 -47 15 l-34 0 3 -55z m62 26 c8 -12 -21 -34 -34 -26
-17 11 -11 35 9 35 11 0 22 -4 25 -9z"/>
<path d="M217 363 c-4 -7 -3 -35 2 -76 1 -5 6 -5 12 -1 6 3 7 9 3 13 -22 15
-14 31 12 25 19 -5 25 -4 20 5 -4 6 -16 11 -27 11 -21 0 -26 16 -6 23 9 4 9 6
0 6 -6 1 -14 -2 -16 -6z"/>
<path d="M610 330 c0 -13 11 -13 30 0 12 8 11 10 -7 10 -13 0 -23 -4 -23 -10z"/>
<path d="M659 328 c-1 -7 -1 -17 0 -22 1 -5 -6 -6 -15 -2 -14 5 -15 4 -4 -9 7
-9 15 -14 17 -11 6 6 14 56 8 56 -3 0 -6 -6 -6 -12z"/>
<path d="M1305 320 c-15 -16 -17 -25 -9 -38 14 -21 42 -28 57 -13 9 9 5 11
-13 9 -19 -2 -25 2 -25 17 0 13 6 19 18 19 10 -1 16 3 14 9 -6 19 -23 18 -42
-3z"/>
<path d="M1834 319 c-14 -15 -16 -24 -7 -37 14 -23 57 -22 61 1 2 10 -3 17
-12 17 -10 0 -13 -6 -9 -16 4 -12 2 -15 -8 -12 -21 7 -18 43 4 42 20 -2 23 12
3 19 -8 3 -22 -3 -32 -14z"/>
<path d="M444 301 c4 -35 22 -61 42 -61 8 0 14 -4 14 -10 0 -15 -11 -12 -32 7
-16 15 -18 15 -18 0 0 -9 9 -21 20 -27 12 -6 26 -23 32 -38 9 -25 11 -26 18
-7 10 28 -6 69 -43 105 -17 16 -26 30 -19 30 6 0 24 -13 39 -30 16 -17 49 -36
78 -44 50 -15 50 -15 25 4 -13 10 -28 16 -32 14 -4 -3 -16 4 -28 16 -11 11
-20 17 -20 13 0 -5 -4 -3 -8 2 -4 6 -22 21 -39 34 l-33 22 4 -30z"/>
<path d="M1030 295 c0 -19 5 -35 10 -35 6 0 10 10 10 23 0 17 2 19 10 7 5 -8
12 -11 16 -7 8 7 -24 47 -38 47 -4 0 -8 -16 -8 -35z"/>
<path d="M1087 322 c-7 -11 4 -62 13 -62 5 0 8 16 7 35 -2 33 -10 44 -20 27z"/>
<path d="M1120 295 c0 -32 3 -35 28 -34 16 1 20 3 10 6 -10 2 -18 8 -18 13 0
5 8 11 18 13 16 4 16 5 0 6 -10 0 -18 5 -18 10 0 5 8 12 18 14 10 3 6 5 -10 6
-25 1 -28 -2 -28 -34z"/>
<path d="M1190 294 c0 -31 3 -35 21 -32 48 7 51 68 4 68 -22 0 -25 -4 -25 -36z
m43 12 c5 -14 -10 -36 -25 -36 -4 0 -8 11 -8 25 0 27 24 35 33 11z"/>
<path d="M1263 295 c-1 -19 3 -35 8 -35 5 0 9 16 9 35 0 19 -4 35 -8 35 -4 0
-8 -16 -9 -35z"/>
<path d="M1373 295 c0 -22 2 -30 4 -17 2 12 2 30 0 40 -3 9 -5 -1 -4 -23z"/>
<path d="M1400 295 c0 -19 5 -35 11 -35 6 0 8 9 4 20 -8 26 2 25 26 -2 l18
-23 0 40 c-1 33 -2 36 -8 15 l-7 -25 -12 23 c-18 32 -32 27 -32 -13z"/>
<path d="M1486 298 c-15 -38 -13 -46 9 -28 12 10 19 10 27 2 23 -23 28 -12 11
23 -21 43 -29 44 -47 3z"/>
<path d="M1580 295 c0 -19 5 -35 10 -35 6 0 10 16 10 35 0 19 -4 35 -10 35 -5
0 -10 -16 -10 -35z"/>
<path d="M1621 293 c1 -33 2 -35 8 -13 l7 25 15 -22 c20 -32 29 -28 29 12 0
19 -5 35 -11 35 -6 0 -9 -7 -5 -15 3 -8 1 -15 -5 -15 -5 0 -12 7 -15 15 -11
28 -24 15 -23 -22z"/>
<path d="M1698 323 c6 -2 12 -18 12 -34 0 -16 5 -29 10 -29 6 0 10 13 10 29 0
16 6 32 13 34 6 3 -4 5 -23 5 -19 0 -29 -2 -22 -5z"/>
<path d="M1760 295 c0 -32 3 -35 28 -34 l27 0 -25 11 -25 11 25 7 c24 8 24 8
3 9 -13 1 -23 5 -23 10 0 5 10 12 23 14 19 4 18 4 -5 6 -26 1 -28 -2 -28 -34z"/>
<path d="M1900 295 c0 -35 20 -51 20 -17 1 16 1 16 14 0 18 -25 21 -23 23 17
3 33 1 35 -27 35 -28 0 -30 -3 -30 -35z"/>
<path d="M1982 298 c-6 -17 -9 -34 -5 -37 3 -3 8 0 10 7 3 6 11 12 18 12 7 0
15 -6 18 -12 2 -7 7 -10 10 -7 10 8 -16 69 -28 69 -6 0 -16 -14 -23 -32z"/>
<path d="M2048 323 c6 -2 12 -18 12 -34 0 -16 5 -29 11 -29 7 0 9 10 5 24 -4
18 -1 28 11 35 15 8 12 10 -17 10 -19 0 -29 -3 -22 -6z"/>
<path d="M2113 295 c0 -22 2 -30 4 -17 2 12 2 30 0 40 -3 9 -5 -1 -4 -23z"/>
<path d="M2144 298 c16 -38 31 -46 39 -21 2 10 8 26 12 36 4 9 3 17 -3 17 -5
0 -13 -10 -16 -22 l-7 -23 -9 23 c-5 12 -14 22 -19 22 -6 0 -4 -14 3 -32z"/>
<path d="M2217 313 c-2 -10 -8 -26 -12 -36 -7 -17 -6 -18 14 -5 18 11 23 11
31 -2 17 -27 22 -2 5 29 -18 35 -30 39 -38 14z"/>
<path d="M370 311 c-8 -5 -34 -8 -58 -8 -36 2 -48 -3 -70 -27 -24 -26 -25 -27
-4 -17 12 6 22 9 22 5 0 -3 7 -1 15 6 8 7 42 13 75 14 32 1 63 6 67 11 5 4 2
5 -6 0 -11 -6 -13 -4 -8 8 7 19 -8 22 -33 8z"/>
<path d="M530 289 c18 -14 34 -18 57 -14 17 3 34 1 37 -4 4 -5 -3 -11 -14 -13
-18 -3 -18 -4 4 -14 20 -9 23 -9 19 2 -3 8 1 14 8 14 9 0 6 8 -8 22 -16 15
-36 22 -75 24 l-53 3 25 -20z"/>
<path d="M406 248 c-17 -40 -21 -79 -10 -121 3 -15 2 -27 -3 -27 -6 0 -14 19
-20 43 l-9 42 -5 -42 c-2 -23 -2 -40 0 -37 2 2 10 -1 17 -7 25 -21 36 1 29 57
-5 41 -2 59 10 78 9 14 15 31 12 38 -3 7 -12 -3 -21 -24z"/>
<path d="M301 238 c-15 -35 -18 -44 -20 -55 0 -4 -6 -2 -12 4 -9 9 -8 18 5 38
10 15 15 29 12 32 -3 3 -14 -10 -25 -28 l-20 -33 22 -15 c12 -8 26 -20 30 -25
6 -7 7 -4 4 6 -3 9 -2 18 2 20 5 2 18 22 29 46 18 38 19 42 3 42 -9 0 -22 -14
-30 -32z"/>
<path d="M362 258 c-7 -7 -12 -17 -12 -24 0 -6 -7 -25 -15 -40 -17 -33 -20
-78 -5 -69 6 3 10 16 10 29 0 13 9 31 20 41 11 10 20 26 20 35 0 9 5 21 12 28
9 9 9 12 -3 12 -8 0 -20 -5 -27 -12z"/>
<path d="M422 218 c-15 -15 -16 -62 -1 -52 7 4 9 0 5 -13 -4 -12 -1 -25 9 -33
19 -16 20 -34 0 -27 -8 4 -17 3 -19 -2 -7 -11 26 -10 40 1 9 6 7 18 -7 44 -11
23 -16 47 -12 65 6 32 3 35 -15 17z"/>
<path d="M540 185 c6 -26 4 -39 -6 -50 -19 -18 -18 -31 1 -15 8 6 17 22 21 33
4 12 14 27 23 34 9 6 12 15 8 19 -4 5 -12 2 -17 -6 -8 -12 -10 -12 -16 3 -11
31 -22 18 -14 -18z"/>
<path d="M450 180 c0 -11 7 -20 15 -20 18 0 20 -20 3 -20 -8 -1 -5 -6 6 -15
11 -8 15 -19 10 -27 -6 -11 -5 -11 8 0 13 11 14 18 3 49 -15 43 -45 66 -45 33z"/>
</g>
</svg>
